<svg xmlns="http://www.w3.org/2000/svg">
<symbol id="twitter" viewBox="0 0 25 25" fill="none" >
<path d="M23.9481 4.11484C23.9483 3.93085 23.8996 3.75011 23.8072 3.59103C23.7147 3.43195 23.5817 3.30022 23.4218 3.20925C23.2619 3.11827 23.0807 3.07131 22.8967 3.07313C22.7127 3.07496 22.5325 3.12552 22.3744 3.21965C21.7647 3.58255 21.1083 3.86047 20.4234 4.04569C19.4452 3.20635 18.1977 2.74705 16.9088 2.75174C15.4948 2.75337 14.1368 3.30445 13.1215 4.2886C12.1063 5.27275 11.5132 6.61296 11.4675 8.02621C8.68001 7.58169 6.15361 6.12675 4.37009 3.93885C4.26262 3.80847 4.12538 3.70584 3.96994 3.63963C3.8145 3.57341 3.64541 3.54554 3.47694 3.55838C3.30856 3.57224 3.1461 3.62691 3.0036 3.71766C2.8611 3.80841 2.74284 3.9325 2.65906 4.07921C2.2294 4.82902 1.98264 5.66959 1.9388 6.53266C1.89497 7.39573 2.0553 8.25697 2.40678 9.04645L2.40475 9.04848C2.24678 9.14578 2.11641 9.28198 2.02611 9.44405C1.93581 9.60613 1.88861 9.78866 1.889 9.97419C1.88709 10.1272 1.89627 10.2802 1.91647 10.432C2.02286 11.7426 2.60374 12.9695 3.55018 13.8825C3.48597 14.0048 3.44679 14.1387 3.43491 14.2763C3.42303 14.4139 3.4387 14.5526 3.481 14.6841C3.89362 15.9696 4.77111 17.055 5.94174 17.7277C4.75241 18.1876 3.46822 18.3479 2.20231 18.1946C1.96801 18.1652 1.73068 18.2163 1.52924 18.3395C1.3278 18.4627 1.17422 18.6508 1.09368 18.8727C1.01315 19.0947 1.01045 19.3375 1.08602 19.5612C1.1616 19.7849 1.31096 19.9763 1.50961 20.104C3.68679 21.5062 6.22177 22.2518 8.81145 22.2514C11.7482 22.2845 14.6135 21.346 16.9617 19.5821C19.3099 17.8182 21.0093 15.3277 21.7956 12.498C22.1634 11.2653 22.3512 9.98595 22.3531 8.69959C22.3531 8.63143 22.3531 8.56124 22.3521 8.49107C22.8959 7.90453 23.3173 7.21533 23.5913 6.46387C23.8654 5.7124 23.9867 4.91379 23.9481 4.11484ZM20.5037 7.46058C20.3317 7.66406 20.2446 7.926 20.2606 8.19199C20.2708 8.36386 20.2697 8.53678 20.2697 8.69959C20.2676 9.78661 20.1083 10.8676 19.7967 11.909C19.1545 14.3167 17.7229 16.4393 15.7312 17.9367C13.7394 19.4342 11.3028 20.2199 8.81145 20.1681C7.91653 20.1684 7.0247 20.0632 6.15439 19.8548C7.26419 19.4971 8.30188 18.9457 9.21937 18.2262C9.38835 18.0931 9.51203 17.911 9.57342 17.7049C9.63481 17.4988 9.63091 17.2787 9.56226 17.0749C9.49361 16.871 9.36356 16.6934 9.18997 16.5665C9.01638 16.4395 8.80775 16.3693 8.5927 16.3656C7.7269 16.3521 6.90013 16.0031 6.28659 15.3921C6.44223 15.3626 6.59686 15.326 6.75046 15.2822C6.97547 15.2182 7.17238 15.0803 7.30948 14.8907C7.44658 14.7011 7.5159 14.471 7.50627 14.2372C7.49663 14.0035 7.40862 13.7797 7.25638 13.6021C7.10415 13.4245 6.89656 13.3032 6.66704 13.2579C6.16448 13.1587 5.69157 12.9448 5.28508 12.6331C4.87859 12.3213 4.54947 11.9201 4.32329 11.4604C4.51155 11.4861 4.70101 11.5021 4.89092 11.5082C5.11653 11.5116 5.33737 11.4432 5.52152 11.3128C5.70567 11.1824 5.84357 10.9969 5.91529 10.7829C5.98402 10.567 5.98049 10.3347 5.90522 10.121C5.82996 9.9073 5.68707 9.72398 5.49822 9.59884C5.04004 9.2936 4.66472 8.8795 4.40588 8.39359C4.14704 7.90769 4.01276 7.36517 4.01506 6.81463C4.01506 6.74546 4.0171 6.67629 4.02117 6.60813C6.35582 8.78548 9.384 10.069 12.5722 10.2326C12.7331 10.2389 12.8934 10.2086 13.0409 10.144C13.1884 10.0793 13.3193 9.98194 13.4237 9.85927C13.527 9.73542 13.6001 9.58927 13.6374 9.43235C13.6746 9.27542 13.6749 9.112 13.6382 8.95494C13.5787 8.70636 13.5483 8.45167 13.5477 8.19606C13.5487 7.30496 13.9031 6.45061 14.5332 5.8205C15.1633 5.19039 16.0176 4.83599 16.9087 4.83505C17.3672 4.83382 17.821 4.92765 18.2413 5.11062C18.6617 5.29358 19.0396 5.56171 19.3512 5.89808C19.4713 6.02733 19.6225 6.1237 19.7904 6.17801C19.9583 6.23232 20.1373 6.24278 20.3104 6.20838C20.7383 6.12511 21.1601 6.01295 21.5728 5.87269C21.2913 6.44871 20.9315 6.98305 20.5037 7.46058Z" fill="#1A1930"/>
</symbol>

<symbol id="instagramm" viewBox="0 0 25 25" fill="none">
<path d="M18.0612 5.68742C17.814 5.68742 17.5723 5.76073 17.3667 5.89808C17.1612 6.03543 17.001 6.23066 16.9063 6.45906C16.8117 6.68747 16.787 6.93881 16.8352 7.18128C16.8834 7.42376 17.0025 7.64649 17.1773 7.8213C17.3521 7.99612 17.5749 8.11517 17.8173 8.1634C18.0598 8.21163 18.3111 8.18688 18.5396 8.09227C18.768 7.99766 18.9632 7.83744 19.1005 7.63188C19.2379 7.42632 19.3112 7.18465 19.3112 6.93742C19.3112 6.6059 19.1795 6.28796 18.9451 6.05354C18.7107 5.81912 18.3927 5.68742 18.0612 5.68742ZM22.8529 8.20825C22.8326 7.34398 22.6707 6.48888 22.3737 5.677C22.1088 4.98235 21.6966 4.35333 21.1654 3.83325C20.6496 3.29932 20.0191 2.88969 19.3216 2.63534C18.5119 2.32925 17.6558 2.16368 16.7904 2.14575C15.6862 2.08325 15.332 2.08325 12.4987 2.08325C9.66537 2.08325 9.3112 2.08325 8.20703 2.14575C7.34157 2.16368 6.48551 2.32925 5.67578 2.63534C4.97961 2.89226 4.34967 3.30154 3.83203 3.83325C3.2981 4.34906 2.88847 4.97954 2.63411 5.677C2.32803 6.48673 2.16246 7.34279 2.14453 8.20825C2.08203 9.31242 2.08203 9.66659 2.08203 12.4999C2.08203 15.3333 2.08203 15.6874 2.14453 16.7916C2.16246 17.6571 2.32803 18.5131 2.63411 19.3228C2.88847 20.0203 3.2981 20.6508 3.83203 21.1666C4.34967 21.6983 4.97961 22.1076 5.67578 22.3645C6.48551 22.6706 7.34157 22.8362 8.20703 22.8541C9.3112 22.9166 9.66537 22.9166 12.4987 22.9166C15.332 22.9166 15.6862 22.9166 16.7904 22.8541C17.6558 22.8362 18.5119 22.6706 19.3216 22.3645C20.0191 22.1102 20.6496 21.7005 21.1654 21.1666C21.699 20.6484 22.1115 20.0189 22.3737 19.3228C22.6707 18.511 22.8326 17.6559 22.8529 16.7916C22.8529 15.6874 22.9154 15.3333 22.9154 12.4999C22.9154 9.66659 22.9154 9.31242 22.8529 8.20825ZM20.9779 16.6666C20.9703 17.3278 20.8505 17.9829 20.6237 18.6041C20.4574 19.0574 20.1902 19.467 19.8424 19.802C19.5046 20.1463 19.0958 20.4129 18.6445 20.5833C18.0234 20.8101 17.3683 20.9298 16.707 20.9374C15.6654 20.9895 15.2799 20.9999 12.5404 20.9999C9.80078 20.9999 9.41537 20.9999 8.3737 20.9374C7.68713 20.9503 7.00348 20.8446 6.35286 20.6249C5.92139 20.4458 5.53136 20.1799 5.20703 19.8437C4.86129 19.509 4.59749 19.0991 4.4362 18.6458C4.18188 18.0157 4.04083 17.3457 4.01953 16.6666C4.01953 15.6249 3.95703 15.2395 3.95703 12.4999C3.95703 9.76034 3.95703 9.37492 4.01953 8.33325C4.0242 7.65727 4.1476 6.98736 4.38411 6.35409C4.5675 5.91441 4.84897 5.52248 5.20703 5.20825C5.5235 4.85009 5.91462 4.56564 6.35286 4.37492C6.98781 4.1458 7.65703 4.02604 8.33203 4.02075C9.3737 4.02075 9.75912 3.95825 12.4987 3.95825C15.2383 3.95825 15.6237 3.95825 16.6654 4.02075C17.3266 4.02834 17.9817 4.14809 18.6029 4.37492C19.0762 4.5506 19.5011 4.83622 19.8424 5.20825C20.1838 5.52823 20.4505 5.91943 20.6237 6.35409C20.8552 6.98839 20.975 7.65802 20.9779 8.33325C21.0299 9.37492 21.0404 9.76034 21.0404 12.4999C21.0404 15.2395 21.0299 15.6249 20.9779 16.6666ZM12.4987 7.15617C11.4423 7.15823 10.4101 7.47338 9.53271 8.06181C8.65531 8.65024 7.97201 9.48554 7.56915 10.4622C7.16629 11.4388 7.06195 12.5129 7.26932 13.5488C7.47668 14.5847 7.98644 15.5359 8.73419 16.2822C9.48194 17.0285 10.4341 17.5364 11.4704 17.7417C12.5067 17.9471 13.5806 17.8407 14.5565 17.4359C15.5323 17.0311 16.3663 16.3462 16.953 15.4677C17.5397 14.5891 17.8529 13.5564 17.8529 12.4999C17.8542 11.7969 17.7166 11.1006 17.4479 10.4509C17.1792 9.80128 16.7847 9.21118 16.2871 8.71456C15.7895 8.21793 15.1986 7.82458 14.5485 7.55714C13.8983 7.28969 13.2017 7.15342 12.4987 7.15617ZM12.4987 15.9687C11.8126 15.9687 11.142 15.7652 10.5716 15.3841C10.0011 15.0029 9.55653 14.4612 9.29399 13.8274C9.03145 13.1935 8.96276 12.4961 9.0966 11.8232C9.23044 11.1503 9.56081 10.5323 10.0459 10.0471C10.531 9.56203 11.1491 9.23166 11.822 9.09782C12.4949 8.96398 13.1923 9.03267 13.8261 9.29521C14.46 9.55775 15.0017 10.0024 15.3829 10.5728C15.764 11.1432 15.9674 11.8139 15.9674 12.4999C15.9674 12.9554 15.8777 13.4065 15.7034 13.8274C15.5291 14.2482 15.2736 14.6306 14.9515 14.9527C14.6294 15.2748 14.247 15.5303 13.8261 15.7046C13.4053 15.8789 12.9542 15.9687 12.4987 15.9687Z" fill="#1A1930"/>
</symbol>

<symbol id="facebook" viewBox="0 0 15 23" fill="none">
<path d="M14.6133 8.83341C14.5177 8.69205 14.3889 8.57632 14.2382 8.4964C14.0874 8.41649 13.9193 8.37482 13.7487 8.37508H10.6237V6.29175H12.9154C13.1916 6.29175 13.4566 6.182 13.6519 5.98665C13.8473 5.7913 13.957 5.52635 13.957 5.25008V1.08341C13.957 0.807148 13.8473 0.542198 13.6519 0.346848C13.4566 0.151488 13.1916 0.041748 12.9154 0.041748H9.582C7.9797 0.041748 6.443 0.678278 5.3099 1.81131C4.1769 2.94434 3.54036 4.48107 3.54036 6.08341V8.37508H1.2487C0.972432 8.37508 0.707481 8.48483 0.512131 8.68018C0.316781 8.87553 0.207031 9.1405 0.207031 9.4167V13.5834C0.207031 13.8597 0.316781 14.1246 0.512131 14.32C0.707481 14.5153 0.972432 14.6251 1.2487 14.6251H3.54036V21.9167C3.54036 22.193 3.65011 22.458 3.84546 22.6533C4.04081 22.8487 4.30576 22.9584 4.58203 22.9584H9.582C9.8583 22.9584 10.1233 22.8487 10.3186 22.6533C10.514 22.458 10.6237 22.193 10.6237 21.9167V14.6251H12.082C12.2907 14.6253 12.4945 14.5628 12.6673 14.4458C12.84 14.3288 12.9736 14.1626 13.0508 13.9688L14.7174 9.8022C14.7804 9.6444 14.8038 9.4737 14.7856 9.3049C14.7675 9.136 14.7083 8.97417 14.6133 8.83341ZM11.3737 12.5417H9.582C9.3058 12.5417 9.0408 12.6515 8.8455 12.8468C8.6501 13.0422 8.5404 13.3071 8.5404 13.5834V20.8751H5.6237V13.5834C5.6237 13.3071 5.514 13.0422 5.3186 12.8468C5.1233 12.6515 4.8583 12.5417 4.58203 12.5417H2.29036V10.4584H4.58203C4.8583 10.4584 5.1233 10.3487 5.3186 10.1533C5.514 9.958 5.6237 9.693 5.6237 9.4167V6.08341C5.6264 5.03444 6.0444 4.02922 6.7861 3.28749C7.5278 2.54575 8.5331 2.12783 9.582 2.12508H11.8737V4.20841H11.0404C10.6877 4.15703 10.3282 4.1786 9.9842 4.27177C9.6402 4.36494 9.3189 4.52774 9.0404 4.75008C8.8713 4.92706 8.7399 5.13643 8.6539 5.36559C8.568 5.59474 8.5294 5.83893 8.5404 6.08341V9.4167C8.5404 9.693 8.6501 9.958 8.8455 10.1533C9.0408 10.3487 9.3058 10.4584 9.582 10.4584H12.207L11.3737 12.5417Z" fill="#1A1930"/>
</symbol>



</svg>
